#!OML:ASF F:\VICON\USERDATA\INSTALL\rory3\rory3.ASF
:FULLY-SPECIFIED
:DEGREES
2350
root 1.14515 17.1143 -1.92808 24.2996 -12.2505 0.993604
lowerback 20.7914 0.588354 -1.39528
upperback 4.56992 0.220183 -2.66265
thorax -6.64472 0.0986769 -2.13325
lowerneck 0.299574 -11.9999 -18.8741
upperneck -7.71977 -16.1947 38.1508
head 3.29141 -8.78566 15.1777
rclavicle -9.14409e-015 -1.19271e-015
rhumerus 44.1163 -34.851 -29.2353
rradius 112.16
rwrist -10.2573
rhand -1.55454 18.6635
rfingers 7.12502
rthumb 24.1006 -9.84285
lclavicle -9.14409e-015 -1.19271e-015
lhumerus -13.4727 0.19973 76.9621
lradius 22.5337
lwrist -11.6273
lhand -5.97428 22.6316
lfingers 7.12502
lthumb 19.8571 51.6372
rfemur -44.7551 13.2878 4.23941
rtibia 23.1023
rfoot -5.36911 -7.0126
rtoes -20.3821
lfemur -44.8922 -2.7711 -19.6147
ltibia 30.8942
lfoot -10.6138 9.3023
ltoes -15.7209
2351
root 1.1737 17.1108 -1.91399 24.1257 -13.082 1.19926
lowerback 20.8081 0.637119 -1.41699
upperback 4.76743 0.277613 -2.69442
thorax -6.43746 0.125683 -2.16716
lowerneck -0.314391 -12.1931 -18.4774
upperneck -7.76234 -16.3793 37.9512
head 3.38194 -8.82626 14.9161
rclavicle -1.19271e-015 -1.23246e-014
rhumerus 43.9511 -35.2734 -29.0377
rradius 112.141
rwrist -9.86216
rhand -1.77274 18.7583
rfingers 7.12502
rthumb 23.8914 -9.77564
lclavicle -1.19271e-015 -1.23246e-014
lhumerus -12.953 -0.163526 76.9896
lradius 22.689
lwrist -11.3939
lhand -5.6394 23.0499
lfingers 7.12502
lthumb 20.179 52.0219
rfemur -44.8404 13.6111 3.74026
rtibia 23.1466
rfoot -5.44107 -6.73204
rtoes -20.3922
lfemur -44.6573 -2.34871 -20.1785
ltibia 30.9402
lfoot -10.8435 9.4714
ltoes -14.8871
2352
root 1.2031 17.1076 -1.90062 23.9996 -13.8108 1.32084
lowerback 20.6137 0.507443 -1.41809
upperback 4.63868 0.133379 -2.4167
thorax -6.47961 0.0571705 -1.82768
lowerneck 0.565695 -11.872 -19.338
upperneck -7.81826 -16.0215 37.9364
head 3.17727 -8.71441 15.233
rclavicle 6.55989e-015 -8.74653e-015
rhumerus 44.2208 -34.8129 -28.777
rradius 112.143
rwrist -9.76108
rhand -1.45765 18.5618
rfingers 7.12502
rthumb 24.1935 -9.93227
lclavicle 6.55989e-015 -8.74653e-015
lhumerus -13.4323 0.326239 77.3059
lradius 22.8222
lwrist -11.4927
lhand -5.10113 23.1611
lfingers 7.12502
lthumb 20.6962 52.0776
rfemur -44.9356 13.8794 3.36141
rtibia 23.1753
rfoot -5.52873 -6.4355
rtoes -20.2837
lfemur -44.4725 -1.95575 -20.6259
ltibia 30.9884
lfoot -10.9442 9.59571
ltoes -14.4216
2353
root 1.23474 17.1073 -1.88241 23.9139 -14.4799 1.45525
lowerback 20.3799 0.41211 -1.19495
upperback 4.64252 0.0689677 -2.32326
thorax -6.35357 0.022915 -1.83433
lowerneck 0.846277 -11.7615 -19.6352
upperneck -7.87858 -15.8913 37.9457
head 3.09925 -8.67384 15.3488
rclavicle 2.76311e-014 -1.61016e-014
rhumerus 44.159 -34.8208 -28.4923
rradius 112.181
rwrist -9.8263
rhand -1.26278 18.6652
rfingers 7.12502
rthumb 24.3803 -9.80379
lclavicle 2.76311e-014 -1.61016e-014
lhumerus -13.5309 -0.028797 77.4883
lradius 23.0207
lwrist -11.0938
lhand -4.73307 23.3502
lfingers 7.12502
lthumb 21.0499 52.2277
rfemur -45.0059 14.0297 3.0148
rtibia 23.1722
rfoot -5.57988 -6.09795
rtoes -20.4415
lfemur -44.3407 -1.6021 -21.0831
ltibia 31.0463
lfoot -11.1092 9.67683
ltoes -13.9537
2354
root 1.26483 17.1077 -1.86205 23.7909 -15.2158 1.58451
lowerback 20.3156 0.36527 -0.942075
upperback 4.67106 0.0601727 -2.32567
thorax -6.2887 0.0143589 -1.97777
lowerneck 0.819769 -11.7817 -19.542
upperneck -7.93368 -15.8941 37.8065
head 3.06037 -8.67337 15.2636
rclavicle -3.37934e-015 -1.09332e-014
rhumerus 43.6586 -35.1309 -28.0302
rradius 112.372
rwrist -10.1843
rhand -1.3724 18.8788
rfingers 7.12502
rthumb 24.2752 -9.60429
lclavicle -3.37934e-015 -1.09332e-014
lhumerus -13.5025 -0.518644 77.5887
lradius 23.2155
lwrist -10.6836
lhand -4.64267 23.5072
lfingers 7.12502
lthumb 21.1367 52.375
rfemur -45.0524 14.2462 2.65946
rtibia 23.16
rfoot -5.59951 -5.76957
rtoes -20.6062
lfemur -44.1564 -1.2504 -21.5231
ltibia 31.1129
lfoot -11.3004 9.80942
ltoes -13.7633
2355
root 1.29188 17.105 -1.84105 23.6264 -16.0279 1.71323
lowerback 20.3073 0.335916 -0.807537
upperback 4.71554 0.0465709 -2.34669
thorax -6.23639 0.0050057 -2.07308
lowerneck 0.633476 -11.8091 -19.3998
upperneck -7.8963 -15.9091 37.6265
head 3.06926 -8.65873 15.135
rclavicle 2.127e-014 -2.96189e-014
rhumerus 43.3016 -35.4548 -27.7851
rradius 112.548
rwrist -10.3571
rhand -1.33376 18.9515
rfingers 7.12502
rthumb 24.3123 -9.52664
lclavicle 2.127e-014 -2.96189e-014
lhumerus -13.4187 -1.08432 77.6362
lradius 23.3488
lwrist -10.1432
lhand -4.5 23.8307
lfingers 7.12502
lthumb 21.2737 52.6831
rfemur -45.0951 14.573 2.26243
rtibia 23.1262
rfoot -5.63212 -5.43336
rtoes -21.0077
lfemur -43.9271 -0.887127 -21.9519
ltibia 31.1893
lfoot -11.4548 10.0637
ltoes -13.9066
2356
root 1.31794 17.102 -1.8208 23.4703 -16.752 1.78619
lowerback 20.2795 0.257854 -0.630658
upperback 4.78224 -0.0161426 -2.31011
thorax -6.1515 -0.0279939 -2.11769
lowerneck 0.46335 -11.813 -19.3744
upperneck -7.88049 -15.8918 37.4512
head 3.07224 -8.62903 15.0408
rclavicle 1.03368e-014 -1.8487e-014
rhumerus 43.5445 -35.5202 -27.8869
rradius 112.429
rwrist -9.95166
rhand -1.11275 19.1437
rfingers 7.12502
rthumb 24.5241 -9.30588
lclavicle 1.03368e-014 -1.8487e-014
lhumerus -13.2939 -1.37515 77.6839
lradius 23.4825
lwrist -9.90306
lhand -4.1526 24.4245
lfingers 7.12502
lthumb 21.6074 53.239
rfemur -45.1267 14.951 1.91113
rtibia 23.1011
rfoot -5.68206 -5.25334
rtoes -20.8474
lfemur -43.6867 -0.543476 -22.3078
ltibia 31.254
lfoot -11.567 10.4075
ltoes -14.8084
